<?xml version="1.0" encoding="utf-8"?>
<!-- Generator: Adobe Illustrator 21.1.0, SVG Export Plug-In . SVG Version: 6.00 Build 0)  -->
<svg version="1.1" id="圖層_1" xmlns="http://www.w3.org/2000/svg" xmlns:xlink="http://www.w3.org/1999/xlink" x="0px" y="0px"
	 viewBox="0 0 30 30" style="enable-background:new 0 0 30 30;" xml:space="preserve">
<g>
	<path d="M29.7,11.7v6.3c0,6.7-5.4,12.1-12.1,12.1H9.7v-5.4h2.5h4.5c4.5,0,8.1-3.6,8.1-8.1v-3.2c0-4.5-3.6-8.1-8.1-8.1h-2.8
		c-4.5,0-8.1,3.6-8.1,8.1V18v2.5H0.3v-8.9C0.3,5.2,5.5,0,12,0H18C24.5,0,29.7,5.2,29.7,11.7z"/>
	<rect x="0.3" y="24.6" width="5.4" height="5.4"/>
	<path d="M16.2,20.5c2.5,0,4.6-2,4.6-4.6v-2.3c0-2.5-2-4.6-4.6-4.6h-2c-2.5,0-4.6,2-4.6,4.6V18v2.5h2.5H16.2z"/>
</g>
</svg>
