<?xml version="1.0" encoding="utf-8"?>
<!-- Generator: Adobe Illustrator 21.1.0, SVG Export Plug-In . SVG Version: 6.00 Build 0)  -->
<svg version="1.1" id="圖層_1" xmlns="http://www.w3.org/2000/svg" xmlns:xlink="http://www.w3.org/1999/xlink" x="0px" y="0px"
	 viewBox="0 0 340 80" style="enable-background:new 0 0 340 80;" xml:space="preserve">
<g>
	<path d="M340,0h-7.5l-16.8,11.4L300.3,0h-12.2c0.2,0.3,20.9,16.8,20.9,16.8l-18.8,14.5h6.4l16.5-12.4l15.1,12.4h11.3l-20.4-16.8
		C319.1,14.4,339.8,0.3,340,0z"/>
	<path d="M49,2.4c-3.2-1.1-6.9-1.7-11.3-1.7H0v30.2h10.6V19.4h27.1c4.4,0,8.2-0.6,11.3-1.7c3.1-1.1,4.7-2.5,4.7-4V6.5
		C53.8,4.9,52.2,3.6,49,2.4z M43.1,13.7c0,0.5-0.5,1-1.6,1.4c-1.1,0.4-2.3,0.6-3.8,0.6H10.6v-11h27.1c1.4,0,2.7,0.2,3.8,0.5
		c1.1,0.4,1.6,0.8,1.6,1.4V13.7z"/>
	<polygon points="71.2,4.6 109,4.6 109,0.7 60.5,0.7 60.5,30.9 109,30.9 109.1,27.1 71.2,27.1 71.2,17.7 109.1,17.8 109.1,13.9 
		71.2,13.9 	"/>
	<polygon points="157.3,24 128.1,0.6 118,0.6 118,30.8 123.4,30.8 123.4,7.4 153.5,30.8 162.7,30.8 162.7,0 157.3,0 	"/>
	<path d="M271.1,25.2c0,0.5-0.5,1-1.6,1.3c-1,0.4-6.9,0.5-8.3,0.5l-18,0c-1.4,0-7.1-0.2-8.1-0.6c-1.1-0.4-1.6-0.8-1.6-1.3V0l-6.3,0
		v25.1c0,1.6,1.6,2.9,4.7,4c3.1,1.1,6.9,1.7,11.3,1.7h21.9c4.4,0,8.1-0.6,11.3-1.7c3.2-1.1,4.7-2.5,4.7-4.1L281.3,0l-10.1,0
		L271.1,25.2z"/>
	<polygon points="183.2,0 172.5,0 172.5,30.8 221,30.8 221,27 183.2,27 	"/>
</g>
<g>
	<path d="M18.4,71.6H4.8l-2.3,4H0l9.9-17.4H13l9.9,17.4h-2.3L18.4,71.6z M17.4,69.8l-5.8-10.2L5.8,69.8H17.4z"/>
	<path d="M42.1,65.8c1.2,0,2.2,0,3.1,0.1c0.9,0.1,1.6,0.2,2.2,0.4c0.6,0.2,1.1,0.4,1.4,0.7c0.3,0.3,0.6,0.6,0.8,1
		c0.2,0.4,0.3,0.8,0.4,1.2c0.1,0.5,0.1,0.9,0.1,1.5c0,0.5,0,1-0.1,1.5c-0.1,0.5-0.3,0.9-0.5,1.3c-0.2,0.4-0.6,0.7-1,1
		c-0.4,0.3-0.9,0.6-1.6,0.8c-0.6,0.2-1.4,0.4-2.3,0.5c-0.9,0.1-2,0.2-3.2,0.2h-2.9c-1.1,0-2,0-2.9-0.1c-0.8-0.1-1.5-0.2-2.1-0.4
		c-0.6-0.2-1.1-0.4-1.5-0.6c-0.4-0.3-0.7-0.6-0.9-0.9c-0.2-0.4-0.4-0.8-0.5-1.2c-0.1-0.4-0.1-0.9-0.1-1.5h2.2c0,0.7,0.1,1.2,0.3,1.6
		c0.2,0.4,0.5,0.7,1,0.9c0.5,0.2,1,0.3,1.8,0.4c0.7,0.1,1.6,0.1,2.7,0.1h2.9c1.3,0,2.3-0.1,3.2-0.2c0.8-0.1,1.5-0.3,2-0.6
		c0.5-0.3,0.8-0.6,1.1-1c0.2-0.4,0.3-1,0.3-1.6s-0.1-1.1-0.2-1.5c-0.1-0.4-0.4-0.7-0.8-1c-0.4-0.2-1-0.4-1.7-0.5
		c-0.7-0.1-1.7-0.2-2.9-0.2h-3c-1.3,0-2.5,0-3.4-0.1c-0.9-0.1-1.7-0.2-2.4-0.4c-0.6-0.2-1.2-0.4-1.5-0.7c-0.4-0.3-0.7-0.6-0.9-0.9
		c-0.2-0.4-0.3-0.7-0.4-1.2c-0.1-0.4-0.1-0.9-0.1-1.4c0-0.5,0-1,0.1-1.5c0.1-0.5,0.3-0.9,0.5-1.2c0.3-0.4,0.6-0.7,1.1-1
		c0.4-0.3,1-0.5,1.7-0.7c0.7-0.2,1.5-0.3,2.5-0.4c1-0.1,2.1-0.1,3.5-0.1H42c1.1,0,2,0,2.9,0.1c0.8,0.1,1.5,0.2,2.1,0.4
		c0.6,0.2,1.1,0.4,1.5,0.6c0.4,0.3,0.7,0.6,0.9,0.9c0.2,0.4,0.4,0.7,0.5,1.2C50,61.5,50,62,50,62.5h-2.2c0-0.7-0.1-1.2-0.3-1.6
		c-0.2-0.4-0.5-0.7-1-0.9c-0.5-0.2-1-0.3-1.8-0.4c-0.7,0-1.7-0.1-2.7-0.1h-2.2c-1.4,0-2.6,0.1-3.6,0.2c-0.9,0.1-1.7,0.3-2.2,0.5
		c-0.5,0.2-0.9,0.6-1.1,1c-0.2,0.4-0.3,0.9-0.3,1.5c0,0.4,0,0.7,0.1,1c0.1,0.3,0.2,0.6,0.3,0.8c0.2,0.2,0.4,0.4,0.7,0.6
		c0.3,0.2,0.7,0.3,1.2,0.4c0.5,0.1,1.1,0.2,1.8,0.2c0.7,0,1.5,0.1,2.5,0.1H42.1z"/>
	<path d="M65.6,69.8c0,1.1-0.1,2-0.3,2.8c-0.2,0.7-0.5,1.3-0.9,1.8c-0.4,0.4-1,0.8-1.7,1c-0.7,0.2-1.6,0.3-2.6,0.3
		c-1,0-1.8-0.1-2.5-0.2c-0.7-0.2-1.2-0.4-1.6-0.8c-0.4-0.4-0.7-0.8-0.9-1.4c-0.2-0.6-0.3-1.4-0.3-2.3v-6.5h-2.7v-1.8h2.7V59H57v3.5
		h8.2v1.8H57v6.5c0,0.7,0.1,1.3,0.2,1.7c0.1,0.4,0.3,0.7,0.5,0.9c0.2,0.2,0.6,0.3,1,0.3c0.4,0,0.9,0,1.5,0c0.5,0,0.9,0,1.2,0
		c0.4,0,0.7-0.1,0.9-0.1c0.3-0.1,0.5-0.2,0.7-0.4c0.2-0.2,0.3-0.4,0.5-0.7c0.1-0.3,0.2-0.7,0.3-1.1c0.1-0.4,0.1-1,0.1-1.7H65.6z"/>
	<path d="M67.8,62.5h2.5l5.8,11.6l5.5-11.6h2.6l-6.5,13l-0.4,0.7c-0.2,0.4-0.3,0.7-0.5,1c-0.2,0.3-0.4,0.6-0.6,0.9
		c-0.2,0.3-0.5,0.5-0.8,0.7c-0.3,0.2-0.7,0.4-1.2,0.5c-0.4,0.1-1,0.3-1.6,0.3c-0.6,0.1-1.4,0.1-2.2,0.1v-1.8c0.7,0,1.3,0,1.8-0.1
		c0.5-0.1,0.9-0.1,1.3-0.2c0.3-0.1,0.6-0.2,0.8-0.4c0.2-0.2,0.4-0.3,0.5-0.5c0.1-0.2,0.3-0.4,0.4-0.6c0.1-0.2,0.2-0.4,0.3-0.7
		l-0.7,0L67.8,62.5z"/>
	<path d="M87,58.2h2.2v17.4H87V58.2z"/>
	<path d="M100.4,75.8c-1.4,0-2.7-0.1-3.7-0.3c-1-0.2-1.8-0.5-2.5-1c-0.6-0.5-1.1-1.1-1.4-2c-0.3-0.8-0.4-1.9-0.4-3.1
		c0-1.4,0.1-2.6,0.4-3.5c0.3-0.9,0.7-1.7,1.4-2.2c0.6-0.6,1.5-0.9,2.5-1.2c1-0.2,2.2-0.3,3.7-0.3c1,0,1.9,0.1,2.7,0.2
		c0.8,0.2,1.4,0.4,1.9,0.7c0.5,0.3,1,0.6,1.3,1c0.3,0.4,0.6,0.8,0.8,1.3c0.2,0.4,0.3,1,0.4,1.6c0.1,0.6,0.1,1.2,0.1,1.9l-0.2,0.7
		H94.6c0,1,0.1,1.8,0.3,2.4c0.2,0.6,0.5,1.1,1,1.4c0.5,0.3,1,0.5,1.8,0.5c0.7,0.1,1.7,0.1,2.7,0.1c1,0,1.8,0,2.5-0.1
		c0.7-0.1,1.2-0.2,1.6-0.3c0.4-0.2,0.7-0.4,0.8-0.6c0.2-0.3,0.2-0.6,0.2-1h2.2c0,0.7-0.1,1.3-0.4,1.8c-0.2,0.5-0.7,0.9-1.2,1.2
		c-0.6,0.3-1.3,0.5-2.2,0.7C102.9,75.7,101.7,75.8,100.4,75.8z M100.4,64c-0.7,0-1.4,0-1.9,0c-0.6,0-1.1,0.1-1.5,0.2
		c-0.4,0.1-0.8,0.2-1.1,0.4c-0.3,0.2-0.5,0.4-0.7,0.7c-0.2,0.3-0.3,0.6-0.4,1.1c-0.1,0.5-0.1,1-0.1,1.7h10.9c0-0.9-0.1-1.6-0.3-2.1
		c-0.2-0.5-0.5-0.9-0.9-1.2c-0.4-0.3-0.9-0.5-1.6-0.7C102.1,64,101.3,64,100.4,64z"/>
	<path d="M128.3,69.8c0,1.1-0.1,2-0.3,2.8c-0.2,0.7-0.5,1.3-0.9,1.8c-0.4,0.4-1,0.8-1.7,1c-0.7,0.2-1.6,0.3-2.6,0.3
		c-1,0-1.8-0.1-2.5-0.2c-0.7-0.2-1.2-0.4-1.6-0.8c-0.4-0.4-0.7-0.8-0.9-1.4c-0.2-0.6-0.3-1.4-0.3-2.3v-6.5h-2.7v-1.8h2.7V59h2.2v3.5
		h8.2v1.8h-8.2v6.5c0,0.7,0.1,1.3,0.2,1.7c0.1,0.4,0.3,0.7,0.5,0.9c0.2,0.2,0.6,0.3,1,0.3c0.4,0,0.9,0,1.5,0c0.5,0,0.9,0,1.2,0
		c0.4,0,0.7-0.1,0.9-0.1c0.3-0.1,0.5-0.2,0.7-0.4c0.2-0.2,0.3-0.4,0.5-0.7c0.1-0.3,0.2-0.7,0.3-1.1c0.1-0.4,0.1-1,0.1-1.7H128.3z"/>
	<path d="M130.1,68.9c0-1.3,0.1-2.4,0.4-3.3c0.3-0.9,0.7-1.6,1.4-2.1c0.6-0.5,1.5-0.9,2.5-1.1c1-0.2,2.2-0.3,3.7-0.3
		c1.4,0,2.7,0.1,3.7,0.3c1,0.2,1.8,0.6,2.5,1.1c0.6,0.5,1.1,1.2,1.4,2.1c0.3,0.9,0.4,2,0.4,3.3c0,1.3-0.1,2.5-0.4,3.4
		c-0.3,0.9-0.7,1.6-1.4,2.1c-0.6,0.5-1.5,0.9-2.5,1.1c-1,0.2-2.2,0.3-3.7,0.3c-1.4,0-2.7-0.1-3.7-0.3c-1-0.2-1.8-0.6-2.5-1.1
		c-0.6-0.5-1.1-1.2-1.4-2.1C130.2,71.4,130.1,70.2,130.1,68.9z M132.3,68.9c0,0.7,0,1.3,0.1,1.9c0.1,0.5,0.2,1,0.3,1.4
		c0.1,0.4,0.4,0.7,0.6,0.9c0.3,0.2,0.6,0.4,1,0.6c0.4,0.1,1,0.2,1.6,0.3c0.6,0.1,1.3,0.1,2.2,0.1c0.7,0,1.4,0,1.9-0.1
		c0.6,0,1.1-0.1,1.5-0.2c0.4-0.1,0.8-0.3,1.1-0.5c0.3-0.2,0.5-0.5,0.7-0.9c0.2-0.4,0.3-0.8,0.4-1.4c0.1-0.6,0.1-1.2,0.1-2
		c0-0.8,0-1.4-0.1-2c-0.1-0.5-0.2-1-0.4-1.4c-0.2-0.4-0.4-0.7-0.7-0.9c-0.3-0.2-0.7-0.4-1.1-0.5c-0.4-0.1-0.9-0.2-1.5-0.2
		c-0.6,0-1.2,0-1.9,0c-0.7,0-1.4,0-1.9,0c-0.6,0-1.1,0.1-1.5,0.2c-0.4,0.1-0.8,0.3-1.1,0.5c-0.3,0.2-0.5,0.5-0.7,0.9
		c-0.2,0.4-0.3,0.8-0.4,1.4C132.3,67.5,132.3,68.1,132.3,68.9z"/>
	<path d="M174.3,75.6h-2.2v-3.3c0-0.5,0-1,0-1.4c0-0.4-0.1-0.7-0.2-1c-0.1-0.3-0.3-0.5-0.5-0.7c-0.2-0.2-0.6-0.3-1-0.4
		c-0.4-0.1-1-0.2-1.6-0.2c-0.7,0-1.5-0.1-2.4-0.1h-9.8v6.9h-2.2V58.2h12.3c1.3,0,2.4,0,3.4,0.1c0.9,0.1,1.7,0.2,2.3,0.4
		c0.6,0.2,1,0.4,1.4,0.7c0.3,0.3,0.6,0.6,0.7,1c0.1,0.4,0.2,0.8,0.3,1.3c0,0.5,0,1,0,1.6c0,0.7-0.1,1.4-0.2,1.9
		c-0.1,0.5-0.3,1-0.5,1.4c-0.2,0.4-0.6,0.7-1,0.9c-0.4,0.2-0.9,0.4-1.5,0.5c0.6,0.1,1.1,0.2,1.4,0.5c0.4,0.2,0.6,0.5,0.8,0.9
		s0.3,0.8,0.4,1.3c0.1,0.5,0.1,1.1,0.1,1.7V75.6z M156.5,66.9h10.1c1,0,1.8,0,2.4-0.1c0.7,0,1.2-0.1,1.6-0.2c0.4-0.1,0.8-0.2,1-0.4
		c0.2-0.2,0.4-0.4,0.5-0.7c0.1-0.3,0.2-0.6,0.2-1c0-0.4,0-0.8,0-1.4c0-0.5,0-0.9,0-1.3c0-0.4-0.1-0.7-0.2-0.9
		c-0.1-0.2-0.3-0.4-0.5-0.6c-0.2-0.1-0.6-0.3-1-0.3c-0.4-0.1-1-0.1-1.6-0.2c-0.7,0-1.5,0-2.4,0h-10.1V66.9z"/>
	<path d="M185.2,75.8c-1.4,0-2.7-0.1-3.7-0.3c-1-0.2-1.8-0.5-2.5-1c-0.6-0.5-1.1-1.1-1.4-2c-0.3-0.8-0.4-1.9-0.4-3.1
		c0-1.4,0.1-2.6,0.4-3.5c0.3-0.9,0.7-1.7,1.4-2.2c0.6-0.6,1.5-0.9,2.5-1.2c1-0.2,2.2-0.3,3.7-0.3c1,0,1.9,0.1,2.7,0.2
		c0.8,0.2,1.4,0.4,1.9,0.7c0.5,0.3,1,0.6,1.3,1c0.3,0.4,0.6,0.8,0.8,1.3c0.2,0.4,0.3,1,0.4,1.6c0.1,0.6,0.1,1.2,0.1,1.9l-0.2,0.7
		h-12.9c0,1,0.1,1.8,0.3,2.4c0.2,0.6,0.5,1.1,1,1.4c0.5,0.3,1,0.5,1.8,0.5c0.7,0.1,1.7,0.1,2.7,0.1c1,0,1.8,0,2.5-0.1
		c0.7-0.1,1.2-0.2,1.6-0.3c0.4-0.2,0.7-0.4,0.8-0.6c0.2-0.3,0.2-0.6,0.2-1h2.2c0,0.7-0.1,1.3-0.4,1.8c-0.2,0.5-0.7,0.9-1.2,1.2
		c-0.6,0.3-1.3,0.5-2.2,0.7C187.7,75.7,186.5,75.8,185.2,75.8z M185.2,64c-0.7,0-1.4,0-1.9,0c-0.6,0-1.1,0.1-1.5,0.2
		c-0.4,0.1-0.8,0.2-1.1,0.4c-0.3,0.2-0.5,0.4-0.7,0.7c-0.2,0.3-0.3,0.6-0.4,1.1c-0.1,0.5-0.1,1-0.1,1.7h10.9c0-0.9-0.1-1.6-0.3-2.1
		c-0.2-0.5-0.5-0.9-0.9-1.2c-0.4-0.3-0.9-0.5-1.6-0.7C186.9,64,186.1,64,185.2,64z"/>
	<path d="M209.1,75.6h-2.2v-7.4c0-0.8-0.1-1.4-0.2-2c-0.1-0.5-0.3-1-0.6-1.3c-0.3-0.3-0.8-0.6-1.3-0.7c-0.6-0.1-1.3-0.2-2.2-0.2
		c-1,0-1.9,0.1-2.5,0.3c-0.7,0.2-1.2,0.4-1.6,0.7c-0.4,0.3-0.6,0.7-0.8,1.1c-0.1,0.4-0.2,0.9-0.2,1.4v8.1h-2.2v-13h2.2v2.1
		c0,0,0-0.1,0.1-0.2c0.1-0.1,0.2-0.3,0.3-0.5c0.2-0.2,0.4-0.4,0.6-0.6c0.3-0.2,0.6-0.4,1-0.6c0.4-0.2,0.9-0.3,1.5-0.4
		c0.6-0.1,1.3-0.2,2.2-0.2c0.8,0,1.5,0.1,2.1,0.2c0.6,0.1,1.1,0.3,1.5,0.5c0.4,0.2,0.8,0.4,1,0.7c0.3,0.3,0.5,0.6,0.6,1
		c0.1-0.2,0.3-0.4,0.6-0.7c0.3-0.3,0.7-0.5,1.1-0.8c0.5-0.2,1.1-0.5,1.8-0.6c0.7-0.2,1.6-0.3,2.7-0.3c0.9,0,1.6,0.1,2.2,0.2
		c0.6,0.1,1.1,0.3,1.6,0.5c0.4,0.2,0.8,0.5,1,0.9c0.3,0.3,0.5,0.7,0.6,1.2c0.1,0.4,0.2,1,0.3,1.5c0,0.6,0.1,1.2,0.1,1.8v7.4h-2.2
		v-7.4c0-0.8-0.1-1.4-0.2-2c-0.1-0.5-0.3-1-0.6-1.3c-0.3-0.3-0.8-0.6-1.3-0.7c-0.6-0.1-1.3-0.2-2.2-0.2c-1,0-1.9,0.1-2.5,0.3
		c-0.7,0.2-1.2,0.4-1.6,0.7c-0.4,0.3-0.6,0.7-0.8,1.1c-0.1,0.4-0.2,0.9-0.2,1.4V75.6z"/>
	<path d="M231.2,75.8c-1.4,0-2.7-0.1-3.7-0.3c-1-0.2-1.8-0.5-2.5-1c-0.6-0.5-1.1-1.1-1.4-2c-0.3-0.8-0.4-1.9-0.4-3.1
		c0-1.4,0.1-2.6,0.4-3.5c0.3-0.9,0.7-1.7,1.4-2.2c0.6-0.6,1.5-0.9,2.5-1.2c1-0.2,2.2-0.3,3.7-0.3c1,0,1.9,0.1,2.7,0.2
		c0.8,0.2,1.4,0.4,1.9,0.7c0.5,0.3,1,0.6,1.3,1c0.3,0.4,0.6,0.8,0.8,1.3c0.2,0.4,0.3,1,0.4,1.6c0.1,0.6,0.1,1.2,0.1,1.9l-0.2,0.7
		h-12.9c0,1,0.1,1.8,0.3,2.4c0.2,0.6,0.5,1.1,1,1.4c0.5,0.3,1,0.5,1.8,0.5c0.7,0.1,1.7,0.1,2.7,0.1c1,0,1.8,0,2.5-0.1
		c0.7-0.1,1.2-0.2,1.6-0.3c0.4-0.2,0.7-0.4,0.8-0.6c0.2-0.3,0.2-0.6,0.2-1h2.2c0,0.7-0.1,1.3-0.4,1.8c-0.2,0.5-0.7,0.9-1.2,1.2
		c-0.6,0.3-1.3,0.5-2.2,0.7C233.7,75.7,232.6,75.8,231.2,75.8z M231.2,64c-0.7,0-1.4,0-1.9,0c-0.6,0-1.1,0.1-1.5,0.2
		c-0.4,0.1-0.8,0.2-1.1,0.4c-0.3,0.2-0.5,0.4-0.7,0.7c-0.2,0.3-0.3,0.6-0.4,1.1c-0.1,0.5-0.1,1-0.1,1.7h10.9c0-0.9-0.1-1.6-0.3-2.1
		c-0.2-0.5-0.5-0.9-0.9-1.2c-0.4-0.3-0.9-0.5-1.6-0.7C232.9,64,232.1,64,231.2,64z"/>
	<path d="M255.1,75.6h-2.2v-7.4c0-0.8-0.1-1.4-0.2-2c-0.1-0.5-0.3-1-0.6-1.3c-0.3-0.3-0.8-0.6-1.3-0.7c-0.6-0.1-1.3-0.2-2.2-0.2
		c-1,0-1.9,0.1-2.5,0.3c-0.7,0.2-1.2,0.4-1.6,0.7c-0.4,0.3-0.6,0.7-0.8,1.1c-0.1,0.4-0.2,0.9-0.2,1.4v8.1h-2.2v-13h2.2v2.1
		c0,0,0-0.1,0.1-0.2c0.1-0.1,0.2-0.3,0.3-0.5c0.2-0.2,0.4-0.4,0.6-0.6c0.3-0.2,0.6-0.4,1-0.6c0.4-0.2,0.9-0.3,1.5-0.4
		c0.6-0.1,1.3-0.2,2.2-0.2c0.8,0,1.5,0.1,2.1,0.2c0.6,0.1,1.1,0.3,1.5,0.5c0.4,0.2,0.8,0.4,1,0.7c0.3,0.3,0.5,0.6,0.6,1
		c0.1-0.2,0.3-0.4,0.6-0.7c0.3-0.3,0.7-0.5,1.1-0.8c0.5-0.2,1.1-0.5,1.8-0.6c0.7-0.2,1.6-0.3,2.7-0.3c0.9,0,1.6,0.1,2.2,0.2
		c0.6,0.1,1.1,0.3,1.6,0.5c0.4,0.2,0.8,0.5,1,0.9c0.3,0.3,0.5,0.7,0.6,1.2c0.1,0.4,0.2,1,0.3,1.5c0,0.6,0.1,1.2,0.1,1.8v7.4h-2.2
		v-7.4c0-0.8-0.1-1.4-0.2-2c-0.1-0.5-0.3-1-0.6-1.3c-0.3-0.3-0.8-0.6-1.3-0.7c-0.6-0.1-1.3-0.2-2.2-0.2c-1,0-1.9,0.1-2.5,0.3
		c-0.7,0.2-1.2,0.4-1.6,0.7c-0.4,0.3-0.6,0.7-0.8,1.1c-0.1,0.4-0.2,0.9-0.2,1.4V75.6z"/>
	<path d="M277.6,75.8c-1,0-1.9-0.1-2.6-0.2c-0.7-0.1-1.3-0.3-1.7-0.5c-0.4-0.2-0.8-0.4-1-0.8c-0.2-0.4-0.4-0.7-0.5-0.9v2.1h-2.2
		V58.2h2.2v5.6c0.1-0.2,0.3-0.3,0.5-0.5c0.2-0.2,0.6-0.4,1-0.5c0.4-0.2,1-0.3,1.7-0.4c0.7-0.1,1.6-0.2,2.6-0.2
		c1.5,0,2.7,0.1,3.7,0.3c1,0.2,1.8,0.6,2.5,1.1c0.6,0.5,1.1,1.2,1.4,2.1c0.3,0.9,0.4,2,0.4,3.3c0,1.3-0.1,2.4-0.4,3.3
		c-0.3,0.9-0.7,1.6-1.4,2.1c-0.6,0.5-1.5,0.9-2.5,1.1C280.3,75.7,279,75.8,277.6,75.8z M277.6,74c0.8,0,1.6,0,2.2-0.1
		c0.6-0.1,1.1-0.1,1.6-0.3c0.4-0.1,0.8-0.3,1-0.6c0.3-0.2,0.5-0.5,0.6-0.9c0.1-0.4,0.2-0.8,0.3-1.3c0-0.5,0.1-1.1,0.1-1.8
		c0-0.7,0-1.3-0.1-1.8c0-0.5-0.1-1-0.3-1.3c-0.1-0.4-0.4-0.7-0.6-0.9c-0.3-0.2-0.6-0.4-1-0.6c-0.4-0.1-1-0.2-1.6-0.3
		c-0.6-0.1-1.3-0.1-2.2-0.1c-0.7,0-1.4,0-1.9,0.1c-0.6,0-1.1,0.1-1.5,0.2c-0.4,0.1-0.8,0.3-1.1,0.5c-0.3,0.2-0.5,0.5-0.7,0.9
		c-0.2,0.4-0.3,0.8-0.4,1.4c-0.1,0.6-0.1,1.2-0.1,2c0,0.8,0,1.4,0.1,2c0.1,0.5,0.2,1,0.4,1.4c0.2,0.4,0.4,0.7,0.7,0.9
		c0.3,0.2,0.7,0.4,1.1,0.5c0.4,0.1,0.9,0.2,1.5,0.2C276.2,74,276.9,74,277.6,74z"/>
	<path d="M295.7,75.8c-1.5,0-2.7-0.1-3.7-0.3c-1-0.2-1.8-0.5-2.5-1c-0.6-0.5-1.1-1.1-1.4-2c-0.3-0.8-0.4-1.9-0.4-3.1
		c0-1.4,0.1-2.6,0.4-3.5c0.3-0.9,0.7-1.7,1.4-2.2c0.6-0.6,1.5-0.9,2.5-1.2c1-0.2,2.2-0.3,3.7-0.3c1,0,1.9,0.1,2.7,0.2
		c0.8,0.2,1.4,0.4,1.9,0.7c0.5,0.3,1,0.6,1.3,1c0.3,0.4,0.6,0.8,0.8,1.3c0.2,0.4,0.3,1,0.4,1.6c0.1,0.6,0.1,1.2,0.1,1.9l-0.2,0.7
		h-12.9c0,1,0.1,1.8,0.3,2.4c0.2,0.6,0.5,1.1,1,1.4c0.5,0.3,1,0.5,1.8,0.5c0.7,0.1,1.7,0.1,2.7,0.1c1,0,1.8,0,2.5-0.1
		c0.7-0.1,1.2-0.2,1.6-0.3c0.4-0.2,0.7-0.4,0.8-0.6c0.2-0.3,0.2-0.6,0.2-1h2.2c0,0.7-0.1,1.3-0.4,1.8c-0.2,0.5-0.7,0.9-1.2,1.2
		c-0.6,0.3-1.3,0.5-2.2,0.7C298.2,75.7,297.1,75.8,295.7,75.8z M295.7,64c-0.7,0-1.4,0-1.9,0c-0.6,0-1.1,0.1-1.5,0.2
		c-0.4,0.1-0.8,0.2-1.1,0.4c-0.3,0.2-0.5,0.4-0.7,0.7c-0.2,0.3-0.3,0.6-0.4,1.1c-0.1,0.5-0.1,1-0.1,1.7h10.9c0-0.9-0.1-1.6-0.3-2.1
		c-0.2-0.5-0.5-0.9-0.9-1.2c-0.4-0.3-0.9-0.5-1.6-0.7C297.4,64,296.6,64,295.7,64z"/>
	<path d="M317.1,66.8c0-0.5,0-1-0.1-1.4c-0.1-0.4-0.3-0.6-0.6-0.9c-0.3-0.2-0.7-0.4-1.3-0.5s-1.4-0.1-2.4-0.1c-1,0-1.8,0.1-2.4,0.3
		c-0.6,0.2-1.1,0.4-1.4,0.7c-0.3,0.3-0.6,0.7-0.7,1.1c-0.1,0.4-0.2,0.9-0.2,1.4v8.1h-2.2v-13h2.2v2.1c0.1-0.2,0.2-0.5,0.4-0.8
		c0.2-0.3,0.5-0.5,0.9-0.8c0.4-0.2,1-0.5,1.6-0.6c0.7-0.2,1.5-0.2,2.5-0.2c1.1,0,2.1,0.1,2.8,0.3c0.7,0.2,1.3,0.5,1.7,0.9
		c0.4,0.4,0.7,0.9,0.8,1.4c0.1,0.6,0.2,1.2,0.2,2H317.1z"/>
</g>
</svg>
