<?xml version="1.0" encoding="utf-8"?>
<!-- Generator: Adobe Illustrator 22.1.0, SVG Export Plug-In . SVG Version: 6.00 Build 0)  -->
<svg version="1.1" id="圖層_1" xmlns="http://www.w3.org/2000/svg" xmlns:xlink="http://www.w3.org/1999/xlink" x="0px" y="0px"
	 viewBox="0 0 30 30" style="enable-background:new 0 0 30 30;" xml:space="preserve">
<style type="text/css">
	.st0{fill-rule:evenodd;clip-rule:evenodd;}
</style>
<path class="st0" d="M17.1,7.8c-1.2-2.5-1.8-4.7-1.9-5.6C15.2,2.1,15.1,2,15,2l0.5,12c0.3,0.2,0.5,0.5,0.5,0.9c0,0.6-0.5,1-1.1,1
	s-1.1-0.5-1.1-1c0-0.4,0.2-0.7,0.5-0.9L15,2c-0.1,0-0.2,0.1-0.2,0.2c-0.1,0.8-0.6,3.1-1.9,5.6c-1.7,3.4-4.7,7.6-4.4,9.9
	c0.2,1.9,2.3,8,2.8,10.3h7.3c0.5-2.4,2.6-8.4,2.8-10.3C21.7,15.4,18.8,11.2,17.1,7.8z"/>
</svg>
