<?xml version="1.0" encoding="utf-8"?>
<!-- Generator: Adobe Illustrator 22.1.0, SVG Export Plug-In . SVG Version: 6.00 Build 0)  -->
<svg version="1.1" id="圖層_1" xmlns="http://www.w3.org/2000/svg" xmlns:xlink="http://www.w3.org/1999/xlink" x="0px" y="0px"
	 viewBox="0 0 30 30" style="enable-background:new 0 0 30 30;" xml:space="preserve">
<style type="text/css">
	.st0{fill-rule:evenodd;clip-rule:evenodd;}
</style>
<g>
	<path class="st0" d="M19,9.5c0,2.1-1.8,3.9-4,3.9c-2.2,0-4-1.7-4-3.9c0-2.1,4-7,4-7S19,7.4,19,9.5"/>
	<path class="st0" d="M26.3,23.6c0,2.1-1.8,3.9-4,3.9c-2.2,0-4-1.7-4-3.9s4-7,4-7S26.3,21.5,26.3,23.6"/>
	<path class="st0" d="M11.7,23.6c0,2.1-1.8,3.9-4,3.9c-2.2,0-4-1.7-4-3.9s4-7,4-7S11.7,21.5,11.7,23.6"/>
</g>
</svg>
