<?xml version="1.0" encoding="utf-8"?>
<!-- Generator: Adobe Illustrator 21.1.0, SVG Export Plug-In . SVG Version: 6.00 Build 0)  -->
<svg version="1.1" id="圖層_1" xmlns="http://www.w3.org/2000/svg" xmlns:xlink="http://www.w3.org/1999/xlink" x="0px" y="0px"
	 viewBox="0 0 30 30" style="enable-background:new 0 0 30 30;" xml:space="preserve">
<path d="M24.5,10.3h-2.8l-0.6-5.2l-0.9-0.8H9.8L8.9,5.1l-0.6,5.2H5.5l-0.9,1l1.2,13.1l0.9,0.8h16.8l0.9-0.8l1-13.1L24.5,10.3z
	 M15.5,12.1h4l-0.9,11.3h-3.1V12.1z M14.5,23.4h-3.1l-0.9-11.3h4V23.4z M10.6,6.1h9l0.5,4.2H10L10.6,6.1z M6.4,12.1H9h0.5l0.9,11.3
	H7.5L6.4,12.1z M22.7,23.4h-3.1l0.9-11.3H21h2.6L22.7,23.4z"/>
</svg>
